<?xml version="1.0" encoding="UTF-8"?>
<svg version="1.1" xmlns="http://www.w3.org/2000/svg" width="1401" height="604">
<path d="M0 0 C462.33 0 924.66 0 1401 0 C1401 199.32 1401 398.64 1401 604 C938.67 604 476.34 604 0 604 C0 404.68 0 205.36 0 0 Z " fill="#FEFEFE" transform="translate(0,0)"/>
<path d="M0 0 C40.96125 -0.0928125 40.96125 -0.0928125 82.75 -0.1875 C95.63305176 -0.22846802 95.63305176 -0.22846802 108.77636719 -0.27026367 C119.35009766 -0.28381348 119.35009766 -0.28381348 124.31671143 -0.28633118 C127.74922633 -0.28910046 131.18159881 -0.30023885 134.61407471 -0.31672668 C202.19038464 -0.62671188 202.19038464 -0.62671188 225.30859375 22.21875 C240.88389565 38.31398215 243.63160484 55.85302271 243.3125 77.421875 C243.06083315 84.85863054 241.94219678 91.11027902 239 98 C238.59910156 99.01449219 238.19820312 100.02898437 237.78515625 101.07421875 C230.78914788 116.91155943 217.95229177 126.61305543 202.125 132.875 C197.79336891 134.43438719 193.46004873 135.8590573 189 137 C192.36450916 138.13933299 195.73800174 139.23003489 199.13671875 140.26171875 C208.27742497 143.09039 216.32631816 146.09716781 224 152 C224.79792969 152.60585938 225.59585937 153.21171875 226.41796875 153.8359375 C238.16172649 163.47486764 244.96141621 178.10265693 247 193 C247.29111033 197.4624195 247.32503027 201.90419907 247.3125 206.375 C247.32861328 207.51710938 247.34472656 208.65921875 247.36132812 209.8359375 C247.3724625 229.43244525 239.9989519 247.29225638 226.640625 261.58203125 C206.51744777 280.0084317 178.28684701 284.35303434 152.01049805 284.22705078 C150.31683518 284.22643672 148.6231718 284.22670746 146.92950916 284.2277813 C142.43221208 284.22822909 137.93502346 284.21671651 133.43775177 284.20256042 C129.20316766 284.19109123 124.96860868 284.1906299 120.73400879 284.18920898 C108.3851584 284.17875332 96.03632779 284.15083078 83.6875 284.125 C56.070625 284.08375 28.45375 284.0425 0 284 C0 190.28 0 96.56 0 0 Z " fill="#020202" transform="translate(881,160)"/>
<path d="M0 0 C0.84732193 0.00359528 1.69464386 0.00719055 2.56764221 0.01089478 C3.89922363 0.01067574 3.89922363 0.01067574 5.25770569 0.01045227 C8.20666404 0.01115174 11.15556006 0.01894568 14.10450745 0.02676392 C16.14332037 0.02862798 18.18213374 0.03005194 20.22094727 0.03105164 C25.59844693 0.03487776 30.97591978 0.04470884 36.35340881 0.05575562 C41.83619321 0.06596771 47.31898192 0.07054882 52.80177307 0.07559204 C63.56806093 0.08633103 74.33432883 0.10340858 85.1006012 0.12442017 C89.71716349 9.85101826 93.64615105 19.83490957 97.6084137 29.83926392 C98.35724834 31.72405559 99.10633494 33.60874718 99.85565186 35.49334717 C101.467789 39.549457 103.07825964 43.60622295 104.68742371 47.66351318 C107.26533236 54.1632209 109.84707392 60.66140185 112.42945862 67.15933228 C115.15981355 74.03009794 117.88992207 80.900961 120.61877441 87.77232361 C129.95496441 111.28117105 139.30791574 134.78333447 148.6648407 158.28393555 C150.94765296 164.01751776 153.22974206 169.7513875 155.51164532 175.48533154 C163.85022106 196.4375939 172.19589194 217.38685855 180.5927887 238.31582642 C181.22997286 239.90466916 181.86713461 241.49352089 182.50427246 243.0823822 C185.08544532 249.51822535 187.66793285 255.95351319 190.25970459 262.38509655 C191.48382193 265.42483962 192.70391582 268.46619789 193.92481995 271.50723267 C194.57286087 273.10946434 194.57286087 273.10946434 195.23399353 274.74406433 C195.61753998 275.7011882 196.00108643 276.65831207 196.39625549 277.6444397 C196.89454109 278.88122971 196.89454109 278.88122971 197.40289307 280.14300537 C198.1006012 282.12442017 198.1006012 282.12442017 198.1006012 284.12442017 C176.9806012 284.12442017 155.8606012 284.12442017 134.1006012 284.12442017 C124.80272886 260.87973931 124.80272886 260.87973931 122.07325745 253.81582642 C121.75400803 252.99033798 121.43475861 252.16484955 121.10583496 251.31434631 C120.4509636 249.61906563 119.79678042 247.92351893 119.14332581 246.22769165 C118.14262617 243.63384829 117.13622217 241.04225769 116.12989807 238.45059204 C115.48566907 236.7808047 114.84177546 235.1108879 114.19825745 233.44082642 C113.75148399 232.2940316 113.75148399 232.2940316 113.29568481 231.12406921 C112.88406349 230.05025246 112.88406349 230.05025246 112.46412659 228.95474243 C112.22400345 228.33333878 111.98388031 227.71193512 111.73648071 227.07170105 C110.98914535 224.78310419 110.53472862 222.49047291 110.1006012 220.12442017 C100.04968093 220.18626365 89.99900688 220.26380568 79.94835472 220.36013508 C75.27890702 220.40442242 70.6095383 220.44376349 65.93995667 220.47085571 C12.62291092 220.33559108 12.62291092 220.33559108 -31.8993988 247.12442017 C-32.73213318 247.93395142 -33.56486755 248.74348267 -34.4228363 249.57754517 C-44.22859767 259.65485069 -49.70815304 271.14630576 -54.8993988 284.12442017 C-76.0193988 284.12442017 -97.1393988 284.12442017 -118.8993988 284.12442017 C-116.87231051 278.04315527 -114.78196455 272.07285541 -112.44236755 266.11660767 C-112.10696457 265.25798126 -111.77156158 264.39935486 -111.42599487 263.51470947 C-110.31560129 260.67523859 -109.2014742 257.83725195 -108.0868988 254.99942017 C-107.69967651 254.01143433 -107.31245422 253.02344849 -106.91349792 252.00552368 C-97.59738684 228.23915224 -88.10048165 204.54509862 -78.59764099 180.85293579 C-68.14763872 154.79679886 -57.76520866 128.71414408 -47.3993988 102.62442017 C-44.5560568 95.46800799 -41.71246206 88.31169639 -38.8681488 81.15567017 C-38.52425425 80.29044928 -38.18035969 79.42522839 -37.82604408 78.53378868 C-32.37406351 64.81843817 -26.90107071 51.11162443 -21.41453552 37.4100647 C-19.31475909 32.16546676 -17.22313851 26.91769396 -15.13768005 21.66738892 C-14.63449192 20.40238827 -14.13124028 19.13741289 -13.62791443 17.87246704 C-12.89853374 16.03845188 -12.16930974 14.20437298 -11.44261169 12.36929321 C-10.69749339 10.48855551 -9.94891021 8.60919165 -9.20018005 6.72988892 C-8.77905945 5.66923218 -8.35793884 4.60857544 -7.92405701 3.51577759 C-6.10507798 -0.72937361 -4.43362746 0.00794557 0 0 Z " fill="#010101" transform="translate(658.8993988037109,159.87557983398438)"/>
<path d="M0 0 C21.45 0 42.9 0 65 0 C65.01458252 5.48488037 65.02916504 10.96976074 65.04418945 16.62084961 C65.09460956 34.7776413 65.16106965 52.93434839 65.23571491 71.09105587 C65.2805668 82.09544348 65.32000561 93.09979949 65.34643555 104.10424805 C65.36950186 113.70236966 65.40299536 123.30039038 65.44870156 132.89843184 C65.47251793 137.97448254 65.49132227 143.05043405 65.49761391 148.12653923 C65.50371763 152.91757669 65.52390514 157.70836071 65.55427551 162.49930382 C65.56297188 164.24499492 65.56679607 165.99071927 65.56500816 167.73643112 C65.55088967 187.90707793 67.53106243 209.86130449 82.4921875 224.94921875 C94.45152369 234.72904974 108.91652127 236.50478629 123.82739258 236.33618164 C126.06302884 236.3124944 128.29747202 236.31565755 130.53320312 236.32226562 C146.77805621 236.29156977 162.75220792 234.32512075 174.84765625 222.4453125 C189.2425382 206.0910546 189.29394851 184.08551479 189.31884766 163.4765625 C189.32817188 161.68111736 189.33834414 159.88567647 189.34928894 158.09024048 C189.3763223 153.26903658 189.39165814 148.44786144 189.40471697 143.62660217 C189.4204657 138.5684178 189.44721774 133.51029119 189.4727478 128.45214844 C189.51932947 118.89747524 189.55617261 109.34279093 189.58942068 99.78806305 C189.62778869 88.90031786 189.67715985 78.01263099 189.72740483 67.12493515 C189.83041773 44.74999468 189.91832477 22.37502923 190 0 C211.12 0 232.24 0 254 0 C254.11323868 25.4187736 254.20518777 50.83734028 254.25906086 76.25630283 C254.28474937 88.06101632 254.31971932 99.86556097 254.37719727 111.67016602 C254.42732043 121.96925844 254.45935881 132.26822847 254.47044247 142.5674395 C254.47691266 148.01158597 254.49192018 153.45538259 254.52865028 158.89941597 C254.81712171 203.39694805 254.81712171 203.39694805 249 221 C248.75617899 221.73906649 248.51235798 222.47813297 248.26114845 223.23959541 C243.60081626 236.99539843 236.24285037 248.73999242 226 259 C225.24074219 259.77085937 224.48148438 260.54171875 223.69921875 261.3359375 C202.75848328 281.41985073 169.72082323 290.13172592 141.2890625 290.16796875 C140.36265961 290.17129715 139.43625671 290.17462555 138.48178101 290.17805481 C136.52350355 290.1831008 134.56521755 290.18546386 132.60693359 290.18530273 C129.66879308 290.18746773 126.73104191 290.20558872 123.79296875 290.22460938 C108.77512077 290.27071973 94.1404079 289.41272225 79.5 285.8125 C78.1860022 285.49104004 78.1860022 285.49104004 76.84545898 285.16308594 C58.05354461 280.34543261 41.80068995 271.77725923 28 258 C27.23042969 257.24203125 26.46085937 256.4840625 25.66796875 255.703125 C3.58093675 232.67541872 -0.35859694 200.16431748 -0.22705078 169.72045898 C-0.226485 167.85590623 -0.22680647 165.99135303 -0.22793579 164.12680054 C-0.2285038 159.12172832 -0.21684 154.11675423 -0.20278788 149.11170459 C-0.19018741 143.86004318 -0.18910274 138.60837891 -0.18673706 133.35670471 C-0.18054944 123.437237 -0.16417583 113.51781398 -0.14403808 103.59836584 C-0.12159393 92.29468631 -0.11066434 80.99100451 -0.10064721 69.68730819 C-0.07980685 46.45817507 -0.04316505 23.22910311 0 0 Z " fill="#000000" transform="translate(266,160)"/>
<path d="M0 0 C20.56244959 -0.12032643 20.56244959 -0.12032643 29.37109375 -0.14648438 C35.36645538 -0.16437284 41.36167871 -0.18546671 47.35693359 -0.22631836 C52.19395075 -0.25906909 57.03081946 -0.27688601 61.867939 -0.28463173 C63.70739705 -0.29014714 65.54684757 -0.30091701 67.38624191 -0.31719017 C81.14368675 -0.43399061 92.63621147 0.32505262 104 9 C108.90819922 13.89786617 111.26771937 19.36997628 113 26 C113.185625 26.61875 113.37125 27.2375 113.5625 27.875 C115.96434123 39.54108597 113.33012888 51.10109948 107 61 C100.83658265 68.35407753 92.29000368 71.49419217 83 73 C80.26198497 73.08774911 77.55057397 73.12650659 74.81323242 73.11352539 C74.00295593 73.11367142 73.19267944 73.11381744 72.35784912 73.1139679 C69.69036138 73.11327347 67.02294423 73.10550312 64.35546875 73.09765625 C62.5017348 73.0957904 60.64800036 73.09436728 58.79426575 73.09336853 C53.92317333 73.08955651 49.05211088 73.07973746 44.18103027 73.06866455 C38.33228423 73.05662028 32.48352815 73.05204193 26.63477325 73.04621124 C17.75649468 73.036525 8.87828183 73.01735923 0 73 C0 48.91 0 24.82 0 0 Z " fill="#FEFEFE" transform="translate(947,321)"/>
<path d="M0 0 C20.73179789 -0.16043524 20.73179789 -0.16043524 29.62890625 -0.1953125 C35.67901802 -0.21914249 41.72888562 -0.24720862 47.77880859 -0.30175781 C52.66123363 -0.34550034 57.5433965 -0.36919665 62.4260025 -0.37950897 C64.28057222 -0.38684968 66.13512902 -0.4011832 67.98958588 -0.42292023 C90.97101481 -0.68136838 90.97101481 -0.68136838 100.4375 6.1875 C109.65442192 16.30363381 109.80463012 27.53342958 109.21777344 40.58007812 C108.55846645 47.90636834 105.59084699 53.88074277 100.375 59 C95.76486114 62.59345424 90.56739098 64.39202683 85 66 C84.45083923 66.17764389 83.90167847 66.35528778 83.33587646 66.53831482 C79.9367662 67.21014779 76.56043804 67.13021924 73.11035156 67.11352539 C72.31972824 67.11367142 71.52910492 67.11381744 70.71452332 67.1139679 C68.10652911 67.11327236 65.4986067 67.10549675 62.890625 67.09765625 C61.08030232 67.0957908 59.26997913 67.09436749 57.45965576 67.09336853 C52.69869591 67.08955339 47.93776663 67.07973165 43.17681885 67.06866455 C37.46242403 67.05662873 31.74801898 67.05204341 26.03361511 67.04621124 C17.35572215 67.03651938 8.67789627 67.01735579 0 67 C0 44.89 0 22.78 0 0 Z " fill="#FEFEFE" transform="translate(947,210)"/>
<path d="M0 0 C2.76349966 3.30540482 4.23993417 6.67946947 5.82470703 10.67236328 C6.09074549 11.33774864 6.35678394 12.003134 6.63088417 12.68868256 C7.51221946 14.8970061 8.38496281 17.10862279 9.2578125 19.3203125 C9.87999446 20.88363557 10.50274766 22.44673139 11.1260376 24.00961304 C12.78940786 28.18445677 14.44566163 32.36208891 16.10051727 36.54031372 C17.80335393 40.83643159 19.51225122 45.13013527 21.22119141 49.42382812 C21.55876905 50.27199726 21.8963467 51.1201664 22.24415398 51.99403763 C22.92344388 53.70071008 23.60276189 55.40737135 24.28210831 57.1140213 C25.29574064 59.66121192 26.30855674 62.20872593 27.32125854 64.75628662 C31.09934963 74.25635813 34.90476794 83.74413225 38.765625 93.2109375 C39.17477142 94.21488556 39.58391785 95.21883362 40.00546265 96.25320435 C41.82228301 100.70704844 43.64585976 105.15800392 45.47705078 109.60595703 C46.09683254 111.1226589 46.7164725 112.63941873 47.3359375 114.15625 C47.61254211 114.8213559 47.88914673 115.48646179 48.1741333 116.17172241 C49.31054232 118.96512563 50 120.9486681 50 124 C48.10447388 124.02187378 48.10447388 124.02187378 46.1706543 124.04418945 C41.38605399 124.10309989 36.60187998 124.1803068 31.81762695 124.26245117 C29.76496407 124.295272 27.71222018 124.32342993 25.65942383 124.34643555 C-5.56403397 124.70550149 -31.36326655 129.91245338 -54 153 C-56.44919213 155.60777291 -58.84682787 158.24286448 -61.1953125 160.94140625 C-62.73903179 162.70231549 -64.3216806 164.36859015 -66 166 C-65.35044301 162.15023626 -64.22605904 158.77152263 -62.76293945 155.15551758 C-62.29623337 153.99565842 -61.82952728 152.83579926 -61.34867859 151.64079285 C-60.83277286 150.37118124 -60.31680513 149.10159483 -59.80078125 147.83203125 C-59.26043533 146.49339709 -58.72051239 145.15459212 -58.1809845 143.81562805 C-57.03924657 140.9839467 -55.89509226 138.15325915 -54.74908447 135.32330322 C-53.04834754 131.1221625 -51.3557374 126.91778756 -49.66552734 122.71240234 C-46.4827066 114.79466246 -43.29452181 106.87909239 -40.10490417 98.96408844 C-39.17284013 96.65112073 -38.24088415 94.33810951 -37.30895996 92.02508545 C-33.80391618 83.32566757 -30.29825417 74.62649904 -26.79206276 65.92754364 C-24.67368581 60.67172692 -22.55572668 55.415742 -20.43798828 50.15966797 C-17.71390862 43.39878217 -14.98886853 36.63828414 -12.26309204 29.87808228 C-11.25783788 27.38487641 -10.25295264 24.89152235 -9.24838257 22.39804077 C-7.86950776 18.97597706 -6.48959062 15.5543356 -5.109375 12.1328125 C-4.70352676 11.12496201 -4.29767853 10.11711151 -3.87953186 9.07872009 C-3.51162033 8.16731766 -3.1437088 7.25591522 -2.76464844 6.31689453 C-2.28629547 5.13040817 -2.28629547 5.13040817 -1.79827881 3.91995239 C-1.24636427 2.59253441 -0.64290717 1.28581434 0 0 Z " fill="#FCFCFC" transform="translate(698,206)"/>
</svg>
